<svg width="256" height="256" viewBox="0 0 256 256" fill="none" xmlns="http://www.w3.org/2000/svg">
  <rect width="256" height="256" rx="64" fill="url(#bg)"/>
  <rect x="44" y="36" width="168" height="184" rx="28" fill="#FFFDF8"/>
  <rect x="96" y="24" width="64" height="28" rx="14" fill="#1F2520"/>
  <rect x="60" y="72" width="40" height="116" rx="16" fill="#FFE1D5"/>
  <rect x="108" y="72" width="40" height="116" rx="16" fill="#DCE8FF"/>
  <rect x="156" y="72" width="40" height="116" rx="16" fill="#D8F2E8"/>
  <rect x="68" y="88" width="24" height="24" rx="8" fill="#FF8A5B"/>
  <path d="M75 100.5L79.5 105L85.5 95.5" stroke="#FFFDF8" stroke-width="6" stroke-linecap="round" stroke-linejoin="round"/>
  <rect x="116" y="96" width="24" height="40" rx="8" fill="#2F6FED"/>
  <path d="M162 156H190" stroke="#2F9E73" stroke-width="10" stroke-linecap="round"/>
  <path d="M162 172H182" stroke="#2F9E73" stroke-width="10" stroke-linecap="round"/>
  <circle cx="178" cy="94" r="12" fill="#2F9E73"/>
  <path d="M172 94.5L176.5 99L184.5 89.5" stroke="#FFFDF8" stroke-width="6" stroke-linecap="round" stroke-linejoin="round"/>
  <defs>
    <linearGradient id="bg" x1="24" y1="20" x2="226" y2="236" gradientUnits="userSpaceOnUse">
      <stop stop-color="#F2EFE8"/>
      <stop offset="0.5" stop-color="#F8F5EE"/>
      <stop offset="1" stop-color="#E0D3BC"/>
    </linearGradient>
  </defs>
</svg>
